<?xml version="1.0" encoding="UTF-8" standalone="no"?>
<!-- Generator: Adobe Illustrator 13.0.2, SVG Export Plug-In . SVG Version: 6.00 Build 14948)  -->

<svg
   xmlns:dc="http://purl.org/dc/elements/1.1/"
   xmlns:cc="http://creativecommons.org/ns#"
   xmlns:rdf="http://www.w3.org/1999/02/22-rdf-syntax-ns#"
   xmlns:svg="http://www.w3.org/2000/svg"
   xmlns="http://www.w3.org/2000/svg"
   xmlns:sodipodi="http://sodipodi.sourceforge.net/DTD/sodipodi-0.dtd"
   xmlns:inkscape="http://www.inkscape.org/namespaces/inkscape"
   version="1.2"
   id="Layer_1"
   x="0px"
   y="0px"
   viewBox="0 0 155.888 142.51218"
   xml:space="preserve"
   inkscape:version="0.48.5 r10040"
   width="100%"
   height="100%"
   sodipodi:docname="ProjectPAM-logo-NoText.svg"
   inkscape:export-filename="C:\Users\Daniel\Downloads\ProjectPAM-logo.png"
   inkscape:export-xdpi="157.88124"
   inkscape:export-ydpi="157.88124"><metadata
   id="metadata3069"><rdf:RDF><cc:Work
       rdf:about=""><dc:format>image/svg+xml</dc:format><dc:type
         rdf:resource="http://purl.org/dc/dcmitype/StillImage" /><dc:title></dc:title></cc:Work></rdf:RDF></metadata><defs
   id="defs3067" /><sodipodi:namedview
   pagecolor="#ffffff"
   bordercolor="#666666"
   borderopacity="1"
   objecttolerance="10"
   gridtolerance="10"
   guidetolerance="10"
   inkscape:pageopacity="0"
   inkscape:pageshadow="2"
   inkscape:window-width="1366"
   inkscape:window-height="705"
   id="namedview3065"
   showgrid="false"
   inkscape:zoom="3.2187595"
   inkscape:cx="46.608331"
   inkscape:cy="84.098363"
   inkscape:window-x="-8"
   inkscape:window-y="-8"
   inkscape:window-maximized="1"
   inkscape:current-layer="Layer_1"
   inkscape:snap-page="false"
   showborder="true"
   fit-margin-top="11"
   fit-margin-left="11"
   fit-margin-right="11"
   fit-margin-bottom="11" />
<path
   d="m 144.161,68.604 -16.439,-3.057 c -0.4,-0.075 -0.838,-0.451 -0.973,-0.837 L 121.71,52.954 c -0.188,-0.363 -0.152,-0.933 0.08,-1.271 l 9.578,-13.96 c 0.229,-0.336 0.184,-0.847 -0.105,-1.136 L 119.3,24.624 c -0.289,-0.289 -0.799,-0.336 -1.135,-0.105 l -14.20501,9.748 c -0.336,0.231 -0.912,0.272 -1.277,0.092 L 91.286998,29.694 c -0.387,-0.128 -0.764,-0.561 -0.84,-0.962 l -3.165,-17.003 c -0.074,-0.401 -0.469,-0.729 -0.877,-0.729 h -16.92 c -0.407,0 -0.802,0.328 -0.876,0.729 l -3.164,17.003 c -0.076,0.401 -0.452,0.834 -0.84,0.962 l -11.397,4.665 c -0.366,0.18 -0.942,0.139 -1.277,-0.092 l -14.204,-9.748 c -0.337,-0.231 -0.848,-0.184 -1.136,0.105 l -11.964,11.963 c -0.288,0.289 -0.336,0.8 -0.105,1.136 l 9.579,13.96 c 0.23,0.338 0.266,0.908 0.079,1.271 l -5.04,11.756 c -0.134,0.386 -0.571,0.762 -0.973,0.837 l -16.438,3.057 c -0.402,0.076 -0.729,0.47 -0.729,0.878 l 10e-4,16.919001 c 0,0.408 0.328,0.805 0.729,0.878 l 16.035,2.984 c 0.401,0.073 0.83,0.454 0.952,0.843 l 5.006,12.504999 c 0.179,0.367 0.137,0.941 -0.095,1.277 l -9.108,13.273 c -0.23,0.336 -0.183,0.848 0.105,1.137 l 11.965,11.963 c 0.288,0.287 0.799,0.334 1.136,0.105 l 13.038,-8.949 c 0.336,-0.23 0.899,-0.248 1.25,-0.043 l 5.75,3.07 c 0.364,0.186 0.789,0.029 0.945,-0.348 l 11.856,-28.646999 c 0.157,-0.377 0,-0.858 -0.348,-1.071 l -1.439,-0.881 c -0.266,-0.162 -0.627,-0.441 -0.91,-0.697 -5.191,-3.324 -8.635,-9.139 -8.635,-15.761001 0,-10.334 8.378,-18.711 18.711,-18.711 10.333,0 18.710009,8.377 18.710009,18.711 0,6.622001 -3.44301,12.437001 -8.635009,15.761001 -0.281,0.256 -0.643,0.535 -0.908,0.697 l -1.439,0.881 c -0.346,0.213 -0.504,0.694 -0.348,1.071 L 97.179004,125.097 c 0.156,0.377 0.58,0.533 0.945,0.348 l 5.749986,-3.07 c 0.352,-0.205 0.914,-0.188 1.25,0.043 l 13.03901,8.949 c 0.336,0.229 0.848,0.182 1.135,-0.105 l 11.965,-11.963 c 0.289,-0.289 0.336,-0.801 0.105,-1.137 l -9.109,-13.273 c -0.23,-0.336 -0.273,-0.91 -0.094,-1.277 l 5.006,-12.504999 c 0.123,-0.389 0.549,-0.77 0.951,-0.843 l 16.035,-2.984 c 0.4,-0.073 0.729,-0.47 0.729,-0.878 L 144.888,69.483 c 0.001,-0.409 -0.327,-0.803 -0.727,-0.879"
   id="path3029"
   inkscape:connector-curvature="0"
   style="fill:#0099b0"
   inkscape:export-xdpi="186.70312"
   inkscape:export-ydpi="186.70312" />

















</svg>